<svg xmlns="http://www.w3.org/2000/svg" viewBox="0 0 800 450" role="img" aria-label="10 üniteli müfredat haritası — üniteler birbirini besler">
<title>10 üniteli müfredat haritası — üniteler birbirini besler</title>
<rect width="800" height="450" rx="12" fill="#1a1d21" stroke="#2e333a"/>
<rect x="60" y="120" width="118" height="70" rx="8" fill="#22262c" stroke="#5d6774"/><text x="119" y="162" font-family="Roboto, system-ui, sans-serif" font-size="15" font-weight="400" fill="#e8eaed" text-anchor="middle">Ünite 01</text><line x1="178" y1="155" x2="202" y2="155" stroke="#939ba7" stroke-width="2" marker-end="url(#ar)"/><rect x="202" y="120" width="118" height="70" rx="8" fill="#22262c" stroke="#5d6774"/><text x="261" y="162" font-family="Roboto, system-ui, sans-serif" font-size="15" font-weight="400" fill="#e8eaed" text-anchor="middle">Ünite 02</text><line x1="320" y1="155" x2="344" y2="155" stroke="#939ba7" stroke-width="2" marker-end="url(#ar)"/><rect x="344" y="120" width="118" height="70" rx="8" fill="#22262c" stroke="#5d6774"/><text x="403" y="162" font-family="Roboto, system-ui, sans-serif" font-size="15" font-weight="400" fill="#e8eaed" text-anchor="middle">Ünite 03</text><line x1="462" y1="155" x2="486" y2="155" stroke="#939ba7" stroke-width="2" marker-end="url(#ar)"/><rect x="486" y="120" width="118" height="70" rx="8" fill="#22262c" stroke="#5d6774"/><text x="545" y="162" font-family="Roboto, system-ui, sans-serif" font-size="15" font-weight="400" fill="#e8eaed" text-anchor="middle">Ünite 04</text><line x1="604" y1="155" x2="628" y2="155" stroke="#939ba7" stroke-width="2" marker-end="url(#ar)"/><rect x="628" y="120" width="118" height="70" rx="8" fill="#22262c" stroke="#5d6774"/><text x="687" y="162" font-family="Roboto, system-ui, sans-serif" font-size="15" font-weight="400" fill="#e8eaed" text-anchor="middle">Ünite 05</text><rect x="60" y="280" width="118" height="70" rx="8" fill="#22262c" stroke="#5d6774"/><text x="119" y="322" font-family="Roboto, system-ui, sans-serif" font-size="15" font-weight="400" fill="#e8eaed" text-anchor="middle">Ünite 06</text><line x1="178" y1="315" x2="202" y2="315" stroke="#939ba7" stroke-width="2" marker-end="url(#ar)"/><rect x="202" y="280" width="118" height="70" rx="8" fill="#22262c" stroke="#5d6774"/><text x="261" y="322" font-family="Roboto, system-ui, sans-serif" font-size="15" font-weight="400" fill="#e8eaed" text-anchor="middle">Ünite 07</text><line x1="320" y1="315" x2="344" y2="315" stroke="#939ba7" stroke-width="2" marker-end="url(#ar)"/><rect x="344" y="280" width="118" height="70" rx="8" fill="#22262c" stroke="#5d6774"/><text x="403" y="322" font-family="Roboto, system-ui, sans-serif" font-size="15" font-weight="400" fill="#e8eaed" text-anchor="middle">Ünite 08</text><line x1="462" y1="315" x2="486" y2="315" stroke="#939ba7" stroke-width="2" marker-end="url(#ar)"/><rect x="486" y="280" width="118" height="70" rx="8" fill="#22262c" stroke="#5d6774"/><text x="545" y="322" font-family="Roboto, system-ui, sans-serif" font-size="15" font-weight="400" fill="#e8eaed" text-anchor="middle">Ünite 09</text><line x1="604" y1="315" x2="628" y2="315" stroke="#939ba7" stroke-width="2" marker-end="url(#ar)"/><rect x="628" y="280" width="118" height="70" rx="8" fill="#22262c" stroke="#5d6774"/><text x="687" y="322" font-family="Roboto, system-ui, sans-serif" font-size="15" font-weight="400" fill="#e8eaed" text-anchor="middle">Ünite 10</text><line x1="687" y1="190" x2="119" y2="280" stroke="#939ba7" stroke-width="2" marker-end="url(#ar)"/><text x="400" y="60" font-family="Roboto, system-ui, sans-serif" font-size="14" font-weight="400" fill="#939ba7" text-anchor="middle">Sırayla, küçük adımlarla — her ünite bir sonrakinin ön-koşulu</text></svg>
