<svg xmlns="http://www.w3.org/2000/svg" viewBox="0 0 800 450" role="img" aria-label="Altı bağımsız uluslararasılaşma ekseni">
<title>Altı bağımsız uluslararasılaşma ekseni</title>
<rect width="800" height="450" rx="12" fill="#1a1d21" stroke="#2e333a"/>
<line x1="400" y1="235" x2="400" y2="90" stroke="#2e333a"/><rect x="330" y="72" width="140" height="36" rx="6" fill="#22262c" stroke="#5d6774"/><text x="400" y="95" font-family="Roboto, system-ui, sans-serif" font-size="13" font-weight="400" fill="#b6bcc6" text-anchor="middle">Dil / Locale</text><line x1="400" y1="235" x2="525.5736835487436" y2="162.5" stroke="#2e333a"/><rect x="455.5736835487436" y="144.5" width="140" height="36" rx="6" fill="#22262c" stroke="#5d6774"/><text x="525.5736835487436" y="167.5" font-family="Roboto, system-ui, sans-serif" font-size="13" font-weight="400" fill="#b6bcc6" text-anchor="middle">Para / FX</text><line x1="400" y1="235" x2="525.5736835487436" y2="307.5" stroke="#2e333a"/><rect x="455.5736835487436" y="289.5" width="140" height="36" rx="6" fill="#22262c" stroke="#5d6774"/><text x="525.5736835487436" y="312.5" font-family="Roboto, system-ui, sans-serif" font-size="13" font-weight="400" fill="#b6bcc6" text-anchor="middle">Vergi</text><line x1="400" y1="235" x2="400" y2="380" stroke="#2e333a"/><rect x="330" y="362" width="140" height="36" rx="6" fill="#22262c" stroke="#5d6774"/><text x="400" y="385" font-family="Roboto, system-ui, sans-serif" font-size="13" font-weight="400" fill="#b6bcc6" text-anchor="middle">Data Residency</text><line x1="400" y1="235" x2="274.4263164512564" y2="307.50000000000006" stroke="#2e333a"/><rect x="204.4263164512564" y="289.50000000000006" width="140" height="36" rx="6" fill="#22262c" stroke="#5d6774"/><text x="274.4263164512564" y="312.50000000000006" font-family="Roboto, system-ui, sans-serif" font-size="13" font-weight="400" fill="#b6bcc6" text-anchor="middle">Hukuk / DSR</text><line x1="400" y1="235" x2="274.4263164512564" y2="162.5" stroke="#2e333a"/><rect x="204.4263164512564" y="144.5" width="140" height="36" rx="6" fill="#22262c" stroke="#5d6774"/><text x="274.4263164512564" y="167.5" font-family="Roboto, system-ui, sans-serif" font-size="13" font-weight="400" fill="#b6bcc6" text-anchor="middle">Kültürel UX</text><circle cx="400" cy="235" r="56" fill="#22262c" stroke="#e0b45c"/><text x="400" y="240" font-family="Roboto, system-ui, sans-serif" font-size="15" font-weight="500" fill="#e0b45c" text-anchor="middle">Resolver</text></svg>
