<svg xmlns="http://www.w3.org/2000/svg" viewBox="0 0 800 450" role="img" aria-label="DocType tanımından beş otomatik çıktı">
<title>DocType tanımından beş otomatik çıktı</title>
<rect width="800" height="450" rx="12" fill="#1a1d21" stroke="#2e333a"/>
<defs><marker id="ar" viewBox="0 0 10 10" refX="9" refY="5" markerWidth="7" markerHeight="7" orient="auto-start-reverse"><path d="M0 0L10 5L0 10z" fill="#939ba7"/></marker></defs><rect x="280" y="110" width="240" height="110" rx="8" fill="#22262c" stroke="#e0b45c"/><text x="400" y="155" font-family="Roboto, system-ui, sans-serif" font-size="19" font-weight="500" fill="#e0b45c" text-anchor="middle">DocType Tanımı</text><text x="400" y="185" font-family="Roboto, system-ui, sans-serif" font-size="13" font-weight="400" fill="#b6bcc6" text-anchor="middle">alanlar + metadata flag'leri</text><rect x="60" y="320" width="120" height="56" rx="8" fill="#22262c" stroke="#5d6774"/><text x="120" y="354" font-family="Roboto, system-ui, sans-serif" font-size="14" font-weight="400" fill="#e8eaed" text-anchor="middle">DB Tablosu</text><line x1="400" y1="226" x2="120" y2="314" stroke="#939ba7" stroke-width="2" marker-end="url(#ar)"/><rect x="205" y="320" width="120" height="56" rx="8" fill="#22262c" stroke="#5d6774"/><text x="265" y="354" font-family="Roboto, system-ui, sans-serif" font-size="14" font-weight="400" fill="#e8eaed" text-anchor="middle">REST API</text><line x1="400" y1="226" x2="265" y2="314" stroke="#939ba7" stroke-width="2" marker-end="url(#ar)"/><rect x="350" y="320" width="120" height="56" rx="8" fill="#22262c" stroke="#5d6774"/><text x="410" y="354" font-family="Roboto, system-ui, sans-serif" font-size="14" font-weight="400" fill="#e8eaed" text-anchor="middle">Form UI</text><line x1="400" y1="226" x2="410" y2="314" stroke="#939ba7" stroke-width="2" marker-end="url(#ar)"/><rect x="495" y="320" width="120" height="56" rx="8" fill="#22262c" stroke="#5d6774"/><text x="555" y="354" font-family="Roboto, system-ui, sans-serif" font-size="14" font-weight="400" fill="#e8eaed" text-anchor="middle">Audit</text><line x1="400" y1="226" x2="555" y2="314" stroke="#939ba7" stroke-width="2" marker-end="url(#ar)"/><rect x="640" y="320" width="120" height="56" rx="8" fill="#22262c" stroke="#5d6774"/><text x="700" y="354" font-family="Roboto, system-ui, sans-serif" font-size="14" font-weight="400" fill="#e8eaed" text-anchor="middle">Hook'lar</text><line x1="400" y1="226" x2="700" y2="314" stroke="#939ba7" stroke-width="2" marker-end="url(#ar)"/><text x="400" y="60" font-family="Roboto, system-ui, sans-serif" font-size="14" font-weight="400" fill="#939ba7" text-anchor="middle">Tek kaynak — el yazımı CRUD yok</text></svg>
