<svg xmlns="http://www.w3.org/2000/svg" viewBox="0 0 800 450" role="img" aria-label="Yedi ana prensip pusulası">
<title>Yedi ana prensip pusulası</title>
<rect width="800" height="450" rx="12" fill="#1a1d21" stroke="#2e333a"/>
<circle cx="400" cy="235" r="150" fill="#22262c" stroke="#5d6774"/><line x1="400" y1="235" x2="400" y2="85" stroke="#2e333a"/><circle cx="400" cy="85" r="5" fill="#e0b45c"/><text x="400" y="56" font-family="Roboto, system-ui, sans-serif" font-size="13" font-weight="400" fill="#b6bcc6" text-anchor="middle">Declarative-first</text><line x1="400" y1="235" x2="517.2747223702045" y2="141.47652972119" stroke="#2e333a"/><circle cx="517.2747223702045" cy="141.47652972119" r="5" fill="#e0b45c"/><text x="543.8569927741175" y="125.27787645799305" font-family="Roboto, system-ui, sans-serif" font-size="13" font-weight="400" fill="#b6bcc6" text-anchor="middle">Agent-native</text><line x1="400" y1="235" x2="546.2391868272736" y2="268.37814009344714" stroke="#2e333a"/><circle cx="546.2391868272736" cy="268.37814009344714" r="5" fill="#e0b45c"/><text x="579.3867358414556" y="280.94385184796187" font-family="Roboto, system-ui, sans-serif" font-size="13" font-weight="400" fill="#b6bcc6" text-anchor="middle">Modüler monolit</text><line x1="400" y1="235" x2="465.08256086763373" y2="370.14533018536287" stroke="#2e333a"/><circle cx="465.08256086763373" cy="370.14533018536287" r="5" fill="#e0b45c"/><text x="479.8346079976307" y="405.7782716940451" font-family="Roboto, system-ui, sans-serif" font-size="13" font-weight="400" fill="#b6bcc6" text-anchor="middle">Test-first</text><line x1="400" y1="235" x2="334.9174391323663" y2="370.14533018536287" stroke="#2e333a"/><circle cx="334.9174391323663" cy="370.14533018536287" r="5" fill="#e0b45c"/><text x="320.16539200236934" y="405.7782716940451" font-family="Roboto, system-ui, sans-serif" font-size="13" font-weight="400" fill="#b6bcc6" text-anchor="middle">Multi-tenancy day-1</text><line x1="400" y1="235" x2="253.76081317272644" y2="268.3781400934472" stroke="#2e333a"/><circle cx="253.76081317272644" cy="268.3781400934472" r="5" fill="#e0b45c"/><text x="220.61326415854447" y="280.94385184796187" font-family="Roboto, system-ui, sans-serif" font-size="13" font-weight="400" fill="#b6bcc6" text-anchor="middle">TR uyum birinci sınıf</text><line x1="400" y1="235" x2="282.7252776297955" y2="141.47652972119" stroke="#2e333a"/><circle cx="282.7252776297955" cy="141.47652972119" r="5" fill="#e0b45c"/><text x="256.14300722588246" y="125.27787645799306" font-family="Roboto, system-ui, sans-serif" font-size="13" font-weight="400" fill="#b6bcc6" text-anchor="middle">Anti-stack defteri</text><text x="400" y="241" font-family="Roboto, system-ui, sans-serif" font-size="18" font-weight="500" fill="#e0b45c" text-anchor="middle">İlkeler</text></svg>
