<svg xmlns="http://www.w3.org/2000/svg" viewBox="0 0 800 450" role="img" aria-label="Yedi ana prensip pusulası">
<title>Yedi ana prensip pusulası</title>
<rect width="800" height="450" rx="12" fill="#1a1d21" stroke="#2e333a"/>
<circle cx="400" cy="235" r="150" fill="#22262c" stroke="#5d6774"/><line x1="400" y1="235" x2="400" y2="85" stroke="#2e333a"/><circle cx="400" cy="85" r="5" fill="#e0b45c"/><text x="400" y="56" font-family="Roboto, system-ui, sans-serif" font-size="13" font-weight="400" fill="#b6bcc6" text-anchor="middle">Declarative-first</text><line x1="400" y1="235" x2="506.06601717798213" y2="128.93398282201787" stroke="#2e333a"/><circle cx="506.06601717798213" cy="128.93398282201787" r="5" fill="#e0b45c"/><text x="530.1076477383248" y="109.89235226167526" font-family="Roboto, system-ui, sans-serif" font-size="13" font-weight="400" fill="#b6bcc6" text-anchor="middle">Agent-native</text><line x1="400" y1="235" x2="550" y2="235" stroke="#2e333a"/><circle cx="550" cy="235" r="5" fill="#e0b45c"/><text x="584" y="240" font-family="Roboto, system-ui, sans-serif" font-size="13" font-weight="400" fill="#b6bcc6" text-anchor="middle">Modüler monolit</text><line x1="400" y1="235" x2="506.06601717798213" y2="341.06601717798213" stroke="#2e333a"/><circle cx="506.06601717798213" cy="341.06601717798213" r="5" fill="#e0b45c"/><text x="530.1076477383248" y="370.1076477383248" font-family="Roboto, system-ui, sans-serif" font-size="13" font-weight="400" fill="#b6bcc6" text-anchor="middle">Test-first</text><line x1="400" y1="235" x2="400" y2="385" stroke="#2e333a"/><circle cx="400" cy="385" r="5" fill="#e0b45c"/><text x="400" y="424" font-family="Roboto, system-ui, sans-serif" font-size="13" font-weight="400" fill="#b6bcc6" text-anchor="middle">Multi-tenancy day-1</text><line x1="400" y1="235" x2="293.93398282201787" y2="341.06601717798213" stroke="#2e333a"/><circle cx="293.93398282201787" cy="341.06601717798213" r="5" fill="#e0b45c"/><text x="269.8923522616752" y="370.1076477383248" font-family="Roboto, system-ui, sans-serif" font-size="13" font-weight="400" fill="#b6bcc6" text-anchor="middle">TR uyum birinci sınıf</text><line x1="400" y1="235" x2="250" y2="235.00000000000003" stroke="#2e333a"/><circle cx="250" cy="235.00000000000003" r="5" fill="#e0b45c"/><text x="216" y="240.00000000000003" font-family="Roboto, system-ui, sans-serif" font-size="13" font-weight="400" fill="#b6bcc6" text-anchor="middle">Anti-stack defteri</text><line x1="400" y1="235" x2="293.93398282201787" y2="128.93398282201787" stroke="#2e333a"/><circle cx="293.93398282201787" cy="128.93398282201787" r="5" fill="#e0b45c"/><text x="269.8923522616752" y="109.89235226167526" font-family="Roboto, system-ui, sans-serif" font-size="13" font-weight="400" fill="#b6bcc6" text-anchor="middle">ArcheType = Diferansiyatör</text><text x="400" y="241" font-family="Roboto, system-ui, sans-serif" font-size="18" font-weight="500" fill="#e0b45c" text-anchor="middle">İlkeler</text></svg>
