<svg xmlns="http://www.w3.org/2000/svg" viewBox="0 0 800 450" role="img" aria-label="Durable execution — çöküşten checkpoint ile devam">
<title>Durable execution — çöküşten checkpoint ile devam</title>
<rect width="800" height="450" rx="12" fill="#1a1d21" stroke="#2e333a"/>
<defs><marker id="ar" viewBox="0 0 10 10" refX="9" refY="5" markerWidth="7" markerHeight="7" orient="auto-start-reverse"><path d="M0 0L10 5L0 10z" fill="#939ba7"/></marker></defs><rect x="70" y="170" width="140" height="80" rx="8" fill="#22262c" stroke="#85c79e"/><text x="140" y="205" font-family="Roboto, system-ui, sans-serif" font-size="15" font-weight="400" fill="#e8eaed" text-anchor="middle">Adım 1</text><text x="140" y="232" font-family="Roboto, system-ui, sans-serif" font-size="12" font-weight="400" fill="#85c79e" text-anchor="middle">checkpoint ✓</text><line x1="210" y1="210" x2="244" y2="210" stroke="#939ba7" stroke-width="2" marker-end="url(#ar)"/><rect x="250" y="170" width="140" height="80" rx="8" fill="#22262c" stroke="#85c79e"/><text x="320" y="205" font-family="Roboto, system-ui, sans-serif" font-size="15" font-weight="400" fill="#e8eaed" text-anchor="middle">Adım 2</text><text x="320" y="232" font-family="Roboto, system-ui, sans-serif" font-size="12" font-weight="400" fill="#85c79e" text-anchor="middle">checkpoint ✓</text><line x1="390" y1="210" x2="424" y2="210" stroke="#939ba7" stroke-width="2" marker-end="url(#ar)"/><rect x="430" y="170" width="140" height="80" rx="8" fill="#22262c" stroke="#e2837b"/><text x="500" y="205" font-family="Roboto, system-ui, sans-serif" font-size="15" font-weight="400" fill="#e8eaed" text-anchor="middle">Adım 3</text><text x="500" y="232" font-family="Roboto, system-ui, sans-serif" font-size="12" font-weight="400" fill="#e2837b" text-anchor="middle">çöküş</text><line x1="570" y1="210" x2="604" y2="210" stroke="#939ba7" stroke-width="2" marker-end="url(#ar)"/><rect x="610" y="170" width="140" height="80" rx="8" fill="#22262c" stroke="#5d6774"/><text x="680" y="205" font-family="Roboto, system-ui, sans-serif" font-size="15" font-weight="400" fill="#e8eaed" text-anchor="middle">Adım 4</text><text x="680" y="232" font-family="Roboto, system-ui, sans-serif" font-size="12" font-weight="400" fill="#939ba7" text-anchor="middle">bekliyor</text><path d="M 500 260 Q 420 330 480 340 Q 540 350 520 300" fill="none" stroke="#e0b45c" stroke-width="2" marker-end="url(#ar)"/><text x="400" y="390" font-family="Roboto, system-ui, sans-serif" font-size="14" font-weight="400" fill="#939ba7" text-anchor="middle">Yeniden başlatma: 1-2 atlanır, 3'ten devam — DBOS checkpoint</text></svg>
