<svg xmlns="http://www.w3.org/2000/svg" viewBox="0 0 800 450" role="img" aria-label="Tarih-tabanlı versiyonlama — çekirdek tek, müşteri pinli">
<title>Tarih-tabanlı versiyonlama — çekirdek tek, müşteri pinli</title>
<rect width="800" height="450" rx="12" fill="#1a1d21" stroke="#2e333a"/>
<defs><marker id="ar" viewBox="0 0 10 10" refX="9" refY="5" markerWidth="7" markerHeight="7" orient="auto-start-reverse"><path d="M0 0L10 5L0 10z" fill="#939ba7"/></marker></defs>
<rect x="60" y="180" width="190" height="90" rx="8" fill="#22262c" stroke="#e0b45c"/><text x="155" y="218" font-family="Roboto, system-ui, sans-serif" font-size="16" font-weight="400" fill="#e0b45c" text-anchor="middle">Çekirdek API</text><text x="155" y="246" font-family="Roboto, system-ui, sans-serif" font-size="12" font-weight="400" fill="#b6bcc6" text-anchor="middle">tek güncel sürüm</text>
<rect x="330" y="180" width="170" height="90" rx="8" fill="#22262c" stroke="#5d6774"/><text x="415" y="218" font-family="Roboto, system-ui, sans-serif" font-size="16" font-weight="400" fill="#e8eaed" text-anchor="middle">Transform</text><text x="415" y="246" font-family="Roboto, system-ui, sans-serif" font-size="12" font-weight="400" fill="#b6bcc6" text-anchor="middle">sürüm köprüleri</text>
<rect x="580" y="110" width="160" height="60" rx="6" fill="#22262c" stroke="#2e333a"/><text x="660" y="147" font-family="Roboto, system-ui, sans-serif" font-size="13" font-weight="400" fill="#b6bcc6" text-anchor="middle">Müşteri @ 2026-01</text><rect x="580" y="200" width="160" height="60" rx="6" fill="#22262c" stroke="#2e333a"/><text x="660" y="237" font-family="Roboto, system-ui, sans-serif" font-size="13" font-weight="400" fill="#b6bcc6" text-anchor="middle">Müşteri @ 2025-06</text><rect x="580" y="290" width="160" height="60" rx="6" fill="#22262c" stroke="#2e333a"/><text x="660" y="327" font-family="Roboto, system-ui, sans-serif" font-size="13" font-weight="400" fill="#b6bcc6" text-anchor="middle">Müşteri @ 2024-11</text>
<line x1="250" y1="225" x2="324" y2="225" stroke="#939ba7" stroke-width="2" marker-end="url(#ar)"/><line x1="500" y1="225" x2="574" y2="140" stroke="#939ba7" stroke-width="2" marker-end="url(#ar)"/><line x1="500" y1="225" x2="574" y2="230" stroke="#939ba7" stroke-width="2" marker-end="url(#ar)"/><line x1="500" y1="225" x2="574" y2="320" stroke="#939ba7" stroke-width="2" marker-end="url(#ar)"/></svg>
